# xmcd
#
# Track frame offsets:
#	150
#	15187
#	26833
#	38987
#	52292
#	61557
#	76308
#	88930
#	100727
#	114029
#	131298
#	144881
#	156018
#	166348
#	180680
#
# Disc length: 2567 seconds
#
# Revision: 1
# Processed by: cddbd v1.5.2PL0 Copyright (c) Steve Scherf et al.
# Submitted via: audiograbber 1.83.01
#
DISCID=af0a050f
DTITLE=Die fidelen Mölltaler - Das Beste - Unsere größten Hits - CD 03
DYEAR=1900
DGENRE=Volkstümliche Musik
TTITLE0=Appenzeller Lied
TTITLE1=Gemeinsame Jahre
TTITLE2=Unser neues Motto
TTITLE3=Abends am See
TTITLE4=Für mich wird es dich immer gebe
TTITLE5=Der letzte Jodler
TTITLE6=Weine nicht um mich
TTITLE7=Das Lied von da Hamat
TTITLE8=Seit dem letzten Abenteuer
TTITLE9=Der Leitner Franz
TTITLE10=Es wird alles wieder gut (Polkalied)
TTITLE11=Das Gloria der Liebe
TTITLE12=Der schönste Diamant (Polkalied)
TTITLE13=Heut sagen wir euch Dankeschön
TTITLE14=Wir seh'n uns wieder
EXTD=
EXTT0=
EXTT1=
EXTT2=
EXTT3=
EXTT4=
EXTT5=
EXTT6=
EXTT7=
EXTT8=
EXTT9=
EXTT10=
EXTT11=
EXTT12=
EXTT13=
EXTT14=
PLAYORDER=
